<?xml version="1.0" encoding="utf-8"?>
<!-- Generator: Adobe Illustrator 23.0.1, SVG Export Plug-In . SVG Version: 6.00 Build 0)  -->
<svg version="1.1"
	 id="svg2816" inkscape:version="0.47 r22583" sodipodi:docname="pin.svg" xmlns:cc="http://creativecommons.org/ns#" xmlns:dc="http://purl.org/dc/elements/1.1/" xmlns:inkscape="http://www.inkscape.org/namespaces/inkscape" xmlns:rdf="http://www.w3.org/1999/02/22-rdf-syntax-ns#" xmlns:sodipodi="http://sodipodi.sourceforge.net/DTD/sodipodi-0.dtd" xmlns:svg="http://www.w3.org/2000/svg"
	 xmlns="http://www.w3.org/2000/svg" xmlns:xlink="http://www.w3.org/1999/xlink" x="0px" y="0px" viewBox="0 0 94 128"
	 style="enable-background:new 0 0 94 128;" xml:space="preserve">
<style type="text/css">
	.st0{fill:#FEAF32;fill-opacity:0.9882;}
</style>
<defs>
	
	
		<inkscape:perspective  id="perspective2824" inkscape:persp3d-origin="0.5 : 0.33333333 : 1" inkscape:vp_x="0 : 0.5 : 1" inkscape:vp_y="0 : 1000 : 0" inkscape:vp_z="1 : 0.5 : 1" sodipodi:type="inkscape:persp3d">
		</inkscape:perspective>
</defs>
<sodipodi:namedview  bordercolor="#666666" borderopacity="1" gridtolerance="10" guidetolerance="10" id="namedview2818" inkscape:current-layer="svg2816" inkscape:cx="44.920355" inkscape:cy="60.493358" inkscape:pageopacity="0" inkscape:pageshadow="2" inkscape:window-height="809" inkscape:window-maximized="0" inkscape:window-width="1126" inkscape:window-x="287" inkscape:window-y="0" inkscape:zoom="3.0991164" objecttolerance="10" pagecolor="#ffffff" showgrid="false">
	</sodipodi:namedview>
<path id="path4127" sodipodi:nodetypes="ccccccccccsc" class="st0" d="M47,126.6c-0.3-0.7-6.2-6.4-10.4-11.7
	C11.7,81.9-16.2,51.1,16.3,13.7C30.7-0.2,48.4-1,66.7,5.5c51.3,29.7,14.2,78.2-10.2,110L47,126.6z M62.4,75.9
	c34.2-24.5,7.8-71.6-29.8-56c-11,5.9-16.4,16-16.6,28.1c-0.5,11.7,5.7,21.5,15.5,27.5c7.1,3.8,10.2,4.5,18.1,4.1
	C54.8,79.2,57.8,78.3,62.4,75.9z"/>
<path class="st0" d="M55.9,1.7C31.6-3.4,7.7,11.7,2.5,35.4c-5.2,23.7,10.3,47.1,34.6,52.1l1.1,0.2c24,4.4,47.2-10.7,52.3-34
	C95.7,30,80.2,6.7,55.9,1.7z M68.2,52c-2.5,12-13.9,19.7-25.7,17.5L42,69.4c-11.9-2.6-19.6-14.6-17-26.8c2.5-12.2,14.3-20,26.2-17.4
	S70.8,39.8,68.2,52z"/>
</svg>
